Coordinates
version=1
nRows=26
nColumns=24
inDegrees=yes

Units are S.I. units (second, meters, Newtons, ...)
Angles are in degrees.

endheader
time	pelvis_tilt	pelvis_list	pelvis_rotation	pelvis_tx	pelvis_ty	pelvis_tz	hip_flexion_r	hip_adduction_r	hip_rotation_r	knee_angle_r	ankle_angle_r	subtalar_angle_r	mtp_angle_r	hip_flexion_l	hip_adduction_l	hip_rotation_l	knee_angle_l	ankle_angle_l	subtalar_angle_l	mtp_angle_l	lumbar_extension	lumbar_bending	lumbar_rotation
      1.50033333	      5.13574583	      6.72122663	     -2.20943382	      0.39005644	      0.91449320	      0.31045827	      8.37097552	    -12.52730824	     -9.51186042	    -68.97347227	      6.93553460	      9.40845840	      9.41964654	      2.43696732	     11.60181542	     -3.05394264	    -14.86380390	      9.17273668	     -9.15455463	      4.60879067	    -11.04361594	    -11.33138765	      2.68123386
      1.50450000	      5.16695029	      6.57073959	     -1.93420628	      0.39512568	      0.91561272	      0.30995187	      8.92477168	    -12.28793626	     -9.66483548	    -68.52595975	      7.60525664	      9.14102696	      7.37482234	      1.68477075	     11.48713615	     -2.64601339	    -14.18966390	      9.02034730	     -9.23772195	      5.20207974	    -11.09608772	    -11.13572736	      2.42875699
      1.50866667	      5.20814585	      6.37219825	     -1.62375810	      0.40014622	      0.91672696	      0.30942368	      9.43422174	    -11.99139548	     -9.85635412	    -67.99631817	      8.21438422	      8.90109437	      7.35626868	      0.98346596	     11.28743407	     -2.37424793	    -13.65187635	      9.01089689	     -8.98947981	      5.21808628	    -11.19744194	    -10.85938450	      2.10974772
      1.51283333	      5.29065232	      6.18617956	     -1.31638577	      0.40523416	      0.91788305	      0.30889438	      9.87387727	    -11.72018427	    -10.06856349	    -67.40000603	      8.72938954	      8.63752623	      7.30826109	      0.19403221	     11.10509494	     -2.04148864	    -13.02561179	      8.97570980	     -8.85508088	      5.23833991	    -11.29290922	    -10.62683777	      1.69288612
      1.51700000	      5.35595602	      5.99960641	     -0.99557604	      0.41026060	      0.91896842	      0.30834710	     10.32871961	    -11.44819006	    -10.28270622	    -66.77072230	      9.24999754	      8.38844313	      7.24620810	     -0.56370007	     10.91460537	     -1.68853404	    -12.40989720	      8.90671984	     -8.75128693	      5.25965540	    -11.39686283	    -10.37661517	      1.32663802
      1.52116667	      5.42600099	      5.81157967	     -0.67182828	      0.41526773	      0.92001951	      0.30779282	     10.76523525	    -11.17918239	    -10.50586430	    -66.08891480	      9.73802768	      8.14546730	      7.17531426	     -1.31747966	     10.71447164	     -1.33408446	    -11.80774948	      8.84006367	     -8.64583704	      5.28041632	    -11.51457717	    -10.12352646	      0.97067979
      1.52533333	      5.50133213	      5.62556748	     -0.33869539	      0.42026773	      0.92103872	      0.30722996	     11.18156650	    -10.91560239	    -10.73929519	    -65.36028489	     10.19152150	      7.90757758	      7.09129941	     -2.07527530	     10.50752775	     -0.98368279	    -11.20005228	      8.77103636	     -8.54821662	      5.30191119	    -11.62160189	     -9.87542815	      0.60615707
      1.52950000	      5.58041519	      5.44288549	     -0.00375198	      0.42524920	      0.92200985	      0.30665699	     11.58477410	    -10.66341365	    -10.98065693	    -64.59218456	     10.61189638	      7.67718133	      6.99240533	     -2.83368037	     10.29618440	     -0.63522601	    -10.58976055	      8.70175975	     -8.45048424	      5.32482746	    -11.73298703	     -9.61960695	      0.23478289
      1.53366667	      5.66124766	      5.25463143	      0.33999273	      0.43021834	      0.92294106	      0.30608869	     11.96939023	    -10.40476868	    -11.23190521	    -63.77488361	     11.00353104	      7.44416635	      6.88366384	     -3.58241023	     10.06732537	     -0.29320106	     -9.99711973	      8.62776143	     -8.35086375	      5.34828844	    -11.84934736	     -9.36352803	     -0.13178447
      1.53783333	      5.74509936	      5.08053952	      0.67819901	      0.43517199	      0.92380903	      0.30551151	     12.34689429	    -10.16933797	    -11.47988452	    -62.92914281	     11.35315496	      7.21217129	      6.75478149	     -4.33468574	      9.84816648	      0.04899451	     -9.39397507	      8.56139498	     -8.25494728	      5.37479902	    -11.96884337	     -9.10434163	     -0.50994732
      1.54200000	      5.82562317	      4.90439566	      1.02286481	      0.44010529	      0.92463022	      0.30494958	     12.71238299	     -9.92901003	    -11.72942598	    -62.03217483	     11.66919381	      6.97923899	      6.61761033	     -5.06889070	      9.61466992	      0.37902847	     -8.81125154	      8.49632381	     -8.14722086	      5.40221653	    -12.07954369	     -8.85446444	     -0.87382850
      1.54616667	      5.89606252	      4.72060462	      1.37278269	      0.44502682	      0.92539194	      0.30439588	     13.07331910	     -9.67896911	    -11.98369897	    -61.08823607	     11.95773624	      6.74193211	      6.49484155	     -5.77163714	      9.36207850	      0.67878138	     -8.26258247	      8.42550769	     -8.02362202	      5.42639070	    -12.17835294	     -8.61339229	     -1.20241724
      1.55033333	      5.98946940	      4.56286895	      1.70398630	      0.44993766	      0.92610281	      0.30383615	     13.41199216	     -9.46873633	    -12.22808390	    -60.12996024	     12.17877784	      6.48619242	      6.32642291	     -6.52111012	      9.13658213	      1.00671363	     -7.66053372	      8.37621037	     -7.92704614	      5.45944123	    -12.30906716	     -8.36028552	     -1.60472862
      1.55450000	      6.04904323	      4.38905695	      2.05428690	      0.45483725	      0.92673471	      0.30329760	     13.76227060	     -9.23336997	    -12.48144648	    -59.11114653	     12.39589670	      6.23255097	      6.19877493	     -7.19018764	      8.87757579	      1.28052303	     -7.14126012	      8.30698749	     -7.78918282	      5.48454774	    -12.38823232	     -8.12620473	     -1.90362332
      1.55866667	      6.14019457	      4.26574139	      2.38123291	      0.45971012	      0.92731060	      0.30276054	     14.08916647	     -9.06500934	    -12.71536000	    -58.10087861	     12.58613468	      5.96116426	      5.86497825	     -7.93435718	      8.67572164	      1.63425978	     -6.52728776	      8.20282083	     -7.75788732	      5.54883711	    -12.52824115	     -7.92995270	     -2.39429669
      1.56283333	      6.18385839	      4.08929994	      2.71885512	      0.46460286	      0.92780948	      0.30224746	     14.43396522	     -8.82439542	    -12.95271227	    -57.00227143	     12.68899554	      5.67307253	      5.74693644	     -8.56359727	      8.40036115	      1.85263820	     -6.04104949	      8.18927659	     -7.57503181	      5.57394879	    -12.57077780	     -7.67404247	     -2.59120645
      1.56700000	      6.25990462	      3.94424299	      3.03829853	      0.46947951	      0.92827031	      0.30176473	     14.74262931	     -8.61936262	    -13.17344278	    -55.89065291	     12.76895706	      5.33748674	      5.61510320	     -9.24805958	      8.15262862	      2.08628693	     -5.50460301	      8.14927730	     -7.40375918	      5.60198523	    -12.67413839	     -7.45667798	     -2.90354429
      1.57116667	      6.34514739	      3.82530121	      3.33153295	      0.47435943	      0.92865782	      0.30130482	     15.04398663	     -8.44448011	    -13.36924506	    -54.77249147	     12.78955382	      4.99088902	      5.41565015	     -9.96006598	      7.93567084	      2.34843691	     -4.93336378	      8.14140340	     -7.29290940	      5.64458717	    -12.78841525	     -7.26823611	     -3.28747874
      1.57533333	      6.39043201	      3.71168262	      3.65070986	      0.47922302	      0.92894705	      0.30081546	     15.36679135	     -8.28626479	    -13.58804042	    -53.61985007	     12.86514205	      4.74087146	      4.62340973	    -10.62514642	      7.71883512	      2.69236342	     -4.35919675	      8.00592752	     -7.35381795	      5.81786313	    -12.85347218	     -7.08456020	     -3.74739276
      1.57950000	      6.42965564	      3.58749097	      3.94467325	      0.48409374	      0.92917295	      0.30040938	     15.68533740	     -8.09384039	    -13.76963904	    -52.41836768	     12.84830429	      4.29276196	      4.50678373	    -11.22787910	      7.47841132	      2.82638211	     -3.89785173	      8.00431679	     -7.09465250	      5.84599636	    -12.89804015	     -6.90600280	     -3.88006952
      1.58366667	      6.49824755	      3.48274812	      4.21291413	      0.48897922	      0.92935723	      0.30002441	     15.96914799	     -7.92275223	    -13.92986639	    -51.20763495	     12.79081207	      3.87476438	      4.34006635	    -11.89785161	      7.25958661	      3.00588904	     -3.36528408	      8.01416911	     -6.90845043	      5.88613542	    -12.99058627	     -6.73657078	     -4.17155527
      1.58783333	      6.55227661	      3.40012679	      4.49813031	      0.49385722	      0.92946446	      0.29962262	     16.24996710	     -7.78595486	    -14.11070442	    -49.97857204	     12.79472513	      3.48229883	      3.95554949	    -12.54885324	      7.05860141	      3.23740710	     -2.83613981	      7.92343306	     -6.82209668	      5.97791194	    -13.06770519	     -6.60310472	     -4.53631775
      1.59200000	      6.55636638	      3.29277355	      4.76235788	      0.49874643	      0.92946191	      0.29927756	     16.57221692	     -7.60820644	    -14.25393803	    -48.69494265	     12.68985222	      3.07316203	      3.82698289	    -13.11080244	      6.83241846	      3.37400181	     -2.37617409	      7.92503625	     -6.63749033	      6.00871721	    -13.05736664	     -6.43567274	     -4.69500356
      1.59616667	      6.60605741	      3.21724087	      4.99932327	      0.50364126	      0.92942893	      0.29897125	     16.84535026	     -7.45979255	    -14.37116782	    -47.41953647	     12.58368532	      2.62090863	      3.64654397	    -13.75541930	      6.63777294	      3.53848188	     -1.85219423	      7.92666652	     -6.48871043	      6.05117641	    -13.13373080	     -6.31271233	     -4.96039923
      1.60033333	      6.62232834	      3.13947396	      5.24986963	      0.50855175	      0.92931662	      0.29865571	     17.12682608	     -7.31326170	    -14.50152294	    -46.09987316	     12.49906206	      2.20286644	      3.49286394	    -14.33679752	      6.43770317	      3.68359847	     -1.38241188	      7.88540934	     -6.34437739	      6.08646060	    -13.14109193	     -6.18704200	     -5.17930314
      1.60450000	      6.65434534	      3.08113322	      5.48553018	      0.51348035	      0.92914060	      0.29835563	     17.38917086	     -7.19476324	    -14.63541439	    -44.79299574	     12.43892837	      1.85689305	      2.58575554	    -14.99284858	      6.25806270	      3.96749033	     -0.79683694	      7.77251565	     -6.45090574	      6.29487383	    -13.18675845	     -6.08093631	     -5.55098154
